<?xml version="1.0" encoding="UTF-8" standalone="no"?>
<svg
   version="1.1"
   id="Calque_1"
   x="0px"
   y="0px"
   width="1063.1232"
   height="960"
   viewBox="0 0 1063.1231 960"
   enable-background="new 0 0 313.056 371.719"
   xml:space="preserve"
   inkscape:version="1.4 (1:1.4+202410161351+e7c3feb100)"
   sodipodi:docname="under-construction_geek_man_01.svg"
   xmlns:inkscape="http://www.inkscape.org/namespaces/inkscape"
   xmlns:sodipodi="http://sodipodi.sourceforge.net/DTD/sodipodi-0.dtd"
   xmlns="http://www.w3.org/2000/svg"
   xmlns:svg="http://www.w3.org/2000/svg"
   xmlns:rdf="http://www.w3.org/1999/02/22-rdf-syntax-ns#"
   xmlns:cc="http://creativecommons.org/ns#"
   xmlns:dc="http://purl.org/dc/elements/1.1/"><metadata
     id="metadata15"><rdf:RDF><cc:Work
         rdf:about=""><dc:format>image/svg+xml</dc:format><dc:type
           rdf:resource="http://purl.org/dc/dcmitype/StillImage" /></cc:Work></rdf:RDF></metadata><defs
     id="defs13" /><sodipodi:namedview
     pagecolor="#ffffff"
     bordercolor="#666666"
     borderopacity="1"
     objecttolerance="10"
     gridtolerance="10"
     guidetolerance="10"
     inkscape:pageopacity="0"
     inkscape:pageshadow="2"
     inkscape:window-width="1849"
     inkscape:window-height="1131"
     id="namedview11"
     showgrid="false"
     inkscape:zoom="0.44893375"
     inkscape:cx="260.61752"
     inkscape:cy="393.15378"
     inkscape:window-x="71"
     inkscape:window-y="221"
     inkscape:window-maximized="1"
     inkscape:current-layer="layer3"
     showguides="true"
     inkscape:guide-bbox="true"
     fit-margin-top="0"
     fit-margin-left="0"
     fit-margin-right="0"
     fit-margin-bottom="0"
     inkscape:showpageshadow="2"
     inkscape:pagecheckerboard="0"
     inkscape:deskcolor="#d1d1d1"><sodipodi:guide
       orientation="1,0"
       position="536.06669,-185.69289"
       id="guide3007"
       inkscape:locked="false" /><sodipodi:guide
       orientation="0,1"
       position="289.78134,329.8526"
       id="guide4009"
       inkscape:locked="false" /></sodipodi:namedview><g
     inkscape:groupmode="layer"
     id="layer3"
     inkscape:label="background"
     transform="translate(351.78176,-260.60293)"
     style="display:inline" /><g
     transform="translate(351.78176,420.0403)"
     style="display:inline"
     inkscape:label="man"
     id="g4116"
     inkscape:groupmode="layer"><g
       style="display:inline"
       id="g4471"
       transform="matrix(1.0596452,0,0,1.0596452,-422.76972,-711.37478)"><g
         id="g4467"><path
           style="fill:#b98989;fill-rule:evenodd;stroke-width:1px;display:inline"
           sodipodi:nodetypes="cccccccc"
           id="path590"
           d="M 118.37603,1155.5025 C 81.091297,1152.45 55.703947,1109.1179 72.040917,1075.2249 139.61306,957.91018 448.02356,428.07748 522.11571,298.12702 c 21.28588,-30.76328 71.50629,-31.08328 92.69002,0.0117 67.81142,117.17651 374.91259,646.55345 450.40697,775.69438 15.9988,33.8157 -7.7832,79.8745 -45.3039,82.6728 -135.38356,0.1381 -751.94628,-1.8127 -901.53277,-1.0031 z"
           inkscape:connector-curvature="0" /><path
           style="font-size:12px;display:inline;fill:#ffbb00;fill-opacity:1;fill-rule:evenodd;stroke:none;stroke-width:1.21827"
           sodipodi:nodetypes="cccc"
           id="path605"
           d="M 138.23064,1100.9228 1003.8207,1098.4185 568.7882,334.2232 Z"
           inkscape:connector-curvature="0" /></g></g><path
       style="fill:#000000;fill-opacity:1;fill-rule:evenodd;stroke:none"
       d="m 192.29114,-12.678385 c -23.00583,0.591731 -33.31896,20.9996593 -34.11907,35.320439 -0.14116,2.526753 1.63249,7.397427 4.50516,10.271761 1.43634,1.437162 3.61503,4.8048 5.55636,5.436224 1.94134,0.631423 4.59068,3.560925 5.94681,4.65533 2.7123,2.18881 3.75338,2.137583 5.19595,4.925639 1.44258,2.788056 1.87322,10.455292 4.56523,13.755749 1.31616,1.613659 4.33564,-2.242285 6.51746,-0.570653 5.60433,4.293822 3.76142,1.715122 5.19595,3.333817 2.86906,3.23739 2.4061,2.257106 6.36729,3.153611 7.18172,0.699508 8.99555,-8.612844 16.39877,-10.722277 1.41264,1.329356 2.26121,2.783732 2.82324,4.294918 -0.43668,8.826553 -3.67423,20.017049 0,24.868472 6.95879,35.333425 3.06055,23.538335 6.24715,46.072745 -16.92142,3.67076 -29.17112,10.752 -45.26182,2.19251 -12.7803,-6.79933 -11.69429,-17.00211 -26.94085,-7.869 -2.73455,1.63893 -8.36781,3.05245 -5.61643,6.7277 4.40041,0.50514 16.7898,-1.36508 16.84929,6.75774 -16.61494,0.0573 -21.58866,-2.66007 -40.42628,-2.25258 -2.03295,2.08235 -0.18252,8.04408 -3.36385,8.98028 -22.19407,2.36524 -27.850288,-11.81564 -40.426286,-19.07184 0.738644,-7.868 -1.463026,-18.7171 1.141306,-24.7183 2.845684,4.63954 2.340808,12.64196 5.616431,16.84929 6.073029,1.20675 6.683078,-3.05071 12.344129,-2.25258 C 92.610737,74.156891 83.611032,28.426351 71.102387,-9.374602 c -2.284401,-1.466063 -7.457706,1.6969092 -11.23286,2.252579 9.578768,40.14598 16.153694,82.674133 14.596712,132.451643 -2.847924,9.12414 -14.732208,9.24465 -15.738019,20.21315 -22.448883,-0.74651 -4.231206,0.61456 -26.730605,-0.18021 l 0,17.96056 16.969429,0 c -0.01999,64.36737 -0.770918,151.6942 -0.02999,217.92951 5.472457,-0.51525 12.547771,0 18.110735,0 0,-56.22884 -0.0019,-157.58869 0.660757,-216.63803 l 130.229104,0 c 4.6283,0.8857 2.10165,-5.38861 6.7277,-4.50516 9.06801,5.15478 24.91829,3.54228 32.55728,10.12159 l 0,8.98028 c -26.78306,8.14078 -53.1834,18.4674 -77.45868,29.19343 -7.27305,3.21388 -19.98818,7.30385 -23.577,12.34413 -4.87862,6.8577 -2.01341,15.05898 -3.36385,24.68827 -6.75035,26.78903 -30.87535,88.5714 -30.87535,88.5714 l 4.77547,2.52289 4.77547,2.52289 c 0,0 -11.20183,9.69426 -22.165386,13.3653 -9.863148,3.30259 -20.625041,12.51058 -12.704546,13.06496 15.110574,1.05766 34.238482,0.89256 48.595642,-4.65533 1.55473,2.93549 -1.30487,3.3919 1.9222,4.65533 3.22707,1.26344 15.62273,0.13134 20.24318,0 2.29907,-9.64035 -1.38433,-13.04499 -1.08124,-21.26435 0.39514,-10.64184 7.08534,-22.21285 10.09155,-33.66854 3.13755,-11.95074 5.68414,-23.39716 10.12159,-33.66855 l -1.05125,-5.49629 c 4.17927,20.5888 7.89027,41.28034 11.68338,61.9309 7.51552,2.52575 14.60918,1.08106 22.19541,4.29492 0.14257,3.17011 2.3727,5.97889 2.25258,9.19052 -13.0138,18.30328 -22.6159,20.69369 -22.6159,20.69369 9.60347,-2.37869 -5.16548,0.77772 -4.47512,7.26833 0.69038,6.49062 23.69713,-2.25258 23.69713,-2.25258 4.23203,-4.29491 8.96793,-3.85855 13.15506,-8.5598 1.88029,3.99572 0.94723,3.21128 3.87444,2.46282 2.92721,-0.74846 9.73585,-1.48316 12.10386,-2.73313 1.26829,-13.11069 -0.78277,-20.10136 -5.85671,-30.96546 l 3.18365,-0.0601 c -8.7794,-28.71695 -17.72468,-58.34227 -24.56813,-88.15093 0,0 44.15713,-3.31815 57.30561,-0.75086 -1.50585,22.07151 0,52.87686 0,76.88803 -1.27619,23.22251 0.54223,38.82797 -10.69224,40.15598 -9.48556,1.12126 -32.113,8.93385 -40.8768,11.11272 0.31543,3.80209 0.54441,4.56085 -0.12014,9.34069 l 10.84241,0 c 3.15529,-3e-5 2.64447,-3.2076 5.46626,-6.90791 6.54682,-2.69697 29.92815,-4.7669 41.17715,-5.49629 18.11289,-2.92313 36.76413,2.6326 64.42376,5.55636 2.98263,0.94071 5.40619,6.84784 5.40619,6.84784 l 11.32296,-0.12013 c 0,0 0.85324,-4.75612 0.54062,-9.10042 -18.99816,-5.32316 -43.1895,-5.41044 -61.72067,-11.20283 -11.68788,-0.0218 -11.71341,-7.67585 -11.71341,-38.02353 l 0,-34.56958 c 0.70384,-13.5167 0.0162,-29.25914 0.57066,-42.799 11.87439,-0.0988 25.98769,4.45572 34.80985,-1.11128 12.05166,-7.6049 10.59112,-9.27697 13.09499,-27.54153 2.50385,-18.26455 6.28909,-56.27547 8.22942,-74.63545 0.67578,-6.38846 4.46029,-35.9022 5.37616,-42.85907 -1.07686,-0.154718 -2.20799,-0.478244 -4.26488,-0.901032 -5.57526,30.318102 -8.32883,70.757532 -12.70455,102.447292 -2.54596,18.44585 -4.40477,40.2401 -23.21658,35.62078 13.33935,-14.31708 18.93925,-40.79251 16.87933,-68.86884 2.23534,-26.17645 -3.42819,-38.5213 -7.98915,-67.06679 -1.57156,-9.843696 -18.08989,-36.260338 -23.33672,-42.528692 -3.07276,-3.674297 -17.0657,-14.478603 -22.85617,-18.861595 l 0.66076,-0.840963 c -8.26526,-2.453074 -14.89022,-6.261944 -21.77493,-9.280626 -2.86585,-19.7782729 -17.00276,-32.605503 -28.53267,-39.825597 -5.15008,-1.414336 -9.85582,-1.971716 -14.11616,-1.862132 z"
       id="path4118"
       inkscape:connector-curvature="0" /></g></svg>
